<?xml version="1.0" standalone="no"?>
<!DOCTYPE svg PUBLIC "-//W3C//DTD SVG 20010904//EN"
 "http://www.w3.org/TR/2001/REC-SVG-20010904/DTD/svg10.dtd">
<svg version="1.0" xmlns="http://www.w3.org/2000/svg"
 width="1500.000000pt" height="1500.000000pt" viewBox="0 0 1500.000000 1500.000000"
 preserveAspectRatio="xMidYMid meet">
<metadata>
Created by potrace 1.14, written by Peter Selinger 2001-2017
</metadata>
<g transform="translate(0.000000,1500.000000) scale(0.100000,-0.100000)"
fill="#000000" stroke="none">
<path d="M6553 12897 c-4 -8 -363 -266 -798 -574 -434 -308 -1103 -781 -1485
-1052 -396 -281 -698 -502 -703 -514 -5 -13 -3 -25 5 -33 30 -29 757 -45 1073
-24 180 12 468 48 775 96 124 20 274 42 334 49 154 18 164 14 244 -106 40 -59
70 -94 80 -93 10 1 74 18 144 37 720 202 1532 191 2229 -29 74 -23 83 -24 97
-10 20 20 28 13 -373 338 -170 138 -362 297 -425 352 -236 208 -435 424 -629
683 -154 206 -220 316 -371 618 -122 245 -138 270 -162 273 -15 2 -30 -3 -35
-11z"/>
<path d="M7306 12344 c-4 -10 10 -48 35 -93 95 -177 166 -264 493 -605 222
-230 306 -305 560 -495 274 -206 291 -231 307 -439 7 -98 14 -131 27 -144 9
-9 56 -32 105 -52 128 -53 366 -174 502 -256 428 -258 813 -610 1113 -1015 82
-112 96 -124 111 -96 8 13 4 53 -14 142 -68 350 -80 535 -79 1179 1 733 22
974 123 1394 36 149 40 172 27 190 -13 20 -45 24 -667 79 -360 31 -1088 95
-1618 142 -530 47 -976 85 -991 85 -17 0 -30 -7 -34 -16z"/>
<path d="M10710 10775 c-10 -12 -10 -69 -1 -288 14 -334 21 -394 78 -727 66
-388 69 -562 12 -747 -17 -54 -25 -66 -59 -85 -22 -13 -42 -29 -45 -37 -3 -8
26 -76 64 -150 224 -438 370 -949 407 -1423 7 -102 24 -128 54 -88 11 14 40
63 66 110 173 310 313 522 516 782 547 697 605 767 785 933 70 65 149 138 176
162 26 25 47 48 47 52 0 16 -91 85 -975 731 -506 370 -948 695 -983 722 -56
44 -99 68 -121 68 -5 0 -14 -7 -21 -15z"/>
<path d="M2460 10680 c-20 -12 -19 -52 29 -1464 42 -1210 41 -1194 84 -1170
21 12 503 489 701 694 247 255 478 472 536 504 46 25 60 28 110 23 33 -3 80
-16 110 -31 28 -14 55 -26 60 -26 4 0 34 35 66 78 350 468 829 862 1371 1130
170 84 186 95 181 119 -5 26 -45 23 -213 -15 -163 -37 -304 -64 -465 -89 -158
-25 -704 -25 -1000 0 -609 52 -875 92 -1329 203 -123 30 -224 54 -225 54 0 0
-8 -5 -16 -10z"/>
<path d="M8845 9688 c-443 -22 -924 -156 -1300 -360 -302 -164 -526 -366 -636
-571 -35 -67 -37 -52 19 -262 22 -82 79 -303 127 -490 84 -332 141 -555 250
-980 29 -115 83 -327 120 -470 36 -143 90 -354 120 -470 30 -115 81 -316 114
-445 76 -297 82 -310 149 -310 45 0 81 28 135 103 130 181 414 385 717 515
142 61 290 114 290 104 0 -7 -21 -44 -315 -547 -266 -455 -245 -412 -260 -529
-14 -105 -37 -274 -81 -590 -42 -299 -36 -346 42 -346 39 0 49 8 579 469 198
173 206 180 227 221 7 14 15 27 18 30 8 7 241 403 331 563 43 76 87 150 97
165 15 22 150 253 239 412 29 50 83 141 103 170 9 14 29 48 45 77 l28 52 46
-5 c128 -15 288 -46 367 -71 103 -33 141 -31 163 9 14 24 13 36 -18 155 -119
458 -151 590 -146 612 4 13 19 43 34 65 15 23 82 136 149 251 132 230 146 270
131 381 -24 175 -188 333 -381 366 -63 11 -147 4 -199 -16 -12 -6 -21 17 -47
121 -18 70 -50 196 -71 278 -21 83 -73 285 -116 450 -173 680 -195 757 -218
776 -39 33 -209 78 -392 103 -132 19 -285 23 -460 14z m330 -128 c213 -18 419
-65 429 -98 3 -10 33 -123 66 -252 33 -129 82 -320 109 -425 173 -670 206
-797 219 -853 16 -69 16 -68 -35 -154 -51 -85 -90 -151 -195 -333 -58 -99
-144 -247 -193 -330 -48 -82 -99 -170 -113 -195 -14 -25 -52 -90 -85 -145 -55
-91 -95 -160 -149 -255 -40 -70 -131 -226 -154 -261 -21 -34 -32 -40 -166 -83
-440 -143 -756 -327 -992 -577 l-85 -90 -10 38 c-5 21 -42 164 -81 318 -39
154 -93 366 -120 470 -50 195 -140 548 -235 920 -29 116 -79 309 -110 430 -31
121 -87 342 -125 490 -38 149 -83 325 -100 392 l-32 122 39 62 c195 317 743
625 1330 748 284 60 553 81 788 61z m1195 -3070 c28 -113 54 -212 56 -221 4
-14 -3 -14 -66 2 -39 10 -116 25 -172 33 -55 9 -103 17 -105 20 -5 4 46 100
87 161 15 22 50 82 79 133 30 52 57 90 61 85 4 -4 31 -100 60 -213z m-1672
-1414 c133 -36 248 -130 310 -254 l36 -74 -21 -16 c-12 -10 -81 -69 -155 -133
-73 -64 -162 -141 -197 -172 l-65 -54 -20 31 c-25 37 -98 76 -143 76 -41 0
-41 -10 -4 245 16 110 33 230 36 268 4 37 11 70 16 73 13 7 89 22 124 23 17 0
54 -6 83 -13z"/>
<path d="M3863 8935 c-20 -14 -184 -190 -650 -695 -134 -146 -384 -392 -558
-551 -156 -141 -309 -251 -530 -380 -69 -40 -125 -78 -125 -84 0 -7 64 -88
141 -181 409 -489 794 -984 1027 -1322 51 -73 92 -136 92 -140 1 -4 10 -18 21
-31 30 -36 43 -14 44 72 0 54 6 84 23 119 32 66 91 122 148 143 27 10 53 22
58 26 4 4 -8 67 -28 141 -42 154 -78 332 -102 503 -22 160 -31 622 -15 793 48
513 203 1032 436 1456 73 132 79 173 18 131z"/>
<path d="M5789 8820 c-793 -73 -1535 -420 -1823 -853 -79 -119 -82 -130 -58
-224 11 -43 52 -204 92 -358 39 -154 91 -356 115 -450 24 -93 75 -294 114
-445 38 -151 92 -365 121 -475 28 -110 83 -324 121 -475 39 -151 93 -362 120
-468 27 -105 69 -272 94 -369 51 -197 66 -223 131 -223 59 0 68 7 163 122 259
316 811 589 1391 688 201 34 330 43 548 37 222 -5 337 -21 476 -64 110 -35
163 -36 187 -3 22 30 23 25 -90 465 -40 154 -88 341 -107 415 -89 345 -138
535 -169 655 -55 213 -230 891 -350 1360 -31 121 -72 281 -92 355 -19 74 -38
145 -40 157 -3 12 -13 29 -22 37 -25 23 -241 81 -371 101 -129 19 -421 27
-551 15z m577 -149 c61 -11 141 -30 177 -41 62 -19 67 -23 76 -58 5 -20 31
-118 56 -217 112 -436 179 -696 234 -910 33 -126 84 -327 114 -445 65 -249
165 -639 248 -960 32 -124 82 -321 113 -438 l55 -214 -26 6 c-206 52 -394 70
-643 63 -647 -20 -1335 -265 -1740 -619 -47 -41 -108 -102 -135 -136 -27 -33
-51 -59 -53 -58 -4 5 -44 157 -153 586 -50 195 -112 441 -139 545 -75 290
-165 645 -230 900 -56 221 -119 468 -236 924 -62 243 -63 230 12 331 126 172
360 349 624 473 180 84 186 87 345 139 223 73 446 121 685 147 143 16 488 6
616 -18z"/>
<path d="M5280 7747 c0 -2 -11 -64 -25 -138 -19 -99 -40 -171 -85 -283 -56
-140 -60 -157 -60 -231 0 -44 -5 -141 -10 -215 -9 -125 -13 -143 -49 -225 -55
-129 -104 -215 -194 -343 l-79 -112 19 -60 c18 -58 19 -60 157 -164 76 -58
141 -106 145 -106 3 0 31 27 62 59 167 176 584 367 918 422 128 21 139 22 535
6 l49 -2 39 143 39 143 -29 33 c-15 18 -41 64 -57 103 l-30 72 -85 27 c-80 25
-89 31 -165 107 -50 51 -93 85 -115 91 -19 6 -107 54 -195 106 -183 109 -260
176 -355 308 -36 50 -78 97 -95 105 -187 97 -335 164 -335 154z"/>
<path d="M11819 7648 c-17 -18 -89 -150 -161 -293 -135 -270 -188 -355 -257
-418 -40 -36 -133 -85 -196 -104 -29 -8 -30 -12 -38 -78 -37 -337 -72 -527
-142 -771 -45 -153 -151 -438 -201 -536 -27 -53 -31 -90 -11 -106 20 -17 50 3
208 139 259 223 388 316 639 460 160 91 275 147 363 177 32 11 63 24 68 29 7
7 -6 54 -40 144 -27 74 -61 173 -75 221 -56 193 -81 509 -71 875 7 216 6 246
-9 268 -22 33 -41 32 -77 -7z"/>
<path d="M3602 5708 c-7 -7 -12 -43 -12 -92 0 -212 -80 -437 -205 -580 -56
-65 -65 -80 -54 -90 255 -233 579 -509 744 -633 438 -330 747 -494 1366 -728
197 -74 246 -85 233 -51 -6 15 -151 104 -344 210 -458 253 -926 674 -1239
1114 -154 217 -285 452 -392 702 -37 85 -71 156 -76 157 -5 2 -14 -2 -21 -9z"/>
<path d="M11053 5181 c-26 -21 -77 -64 -113 -95 -36 -31 -80 -63 -98 -71 -31
-15 -34 -15 -81 11 -27 14 -64 44 -81 65 -17 22 -39 39 -48 39 -12 0 -39 -45
-94 -157 -95 -193 -144 -271 -275 -433 -335 -415 -920 -850 -1468 -1093 -121
-54 -600 -229 -672 -246 -60 -15 -78 -31 -68 -62 7 -21 11 -21 84 -16 184 15
573 117 870 228 331 124 726 362 1052 633 377 314 583 520 809 809 13 18 50
64 81 102 54 68 163 227 188 273 10 18 10 27 0 38 -18 22 -33 17 -86 -25z"/>
<path d="M10762 4267 c-78 -78 -142 -148 -142 -154 0 -7 44 -58 98 -115 55
-57 258 -272 452 -478 233 -248 362 -378 381 -384 35 -11 59 6 59 41 0 13
-142 279 -316 591 -344 617 -358 642 -377 642 -7 0 -76 -64 -155 -143z"/>
<path d="M3509 4358 c-24 -45 -671 -1004 -695 -1029 -33 -35 -32 -75 4 -93 21
-11 33 -12 47 -3 22 11 979 801 1033 851 18 16 31 34 30 38 -6 15 -371 258
-389 258 -10 0 -24 -10 -30 -22z"/>
</g>
</svg>
